<?xml version="1.0" encoding="UTF-8" standalone="no"?>
<!-- Created with Inkscape (http://www.inkscape.org/) -->

<svg
   width="38.509323mm"
   height="42.9827mm"
   viewBox="0 0 38.509323 42.9827"
   version="1.1"
   id="svg2470"
   inkscape:version="1.2.1 (9c6d41e410, 2022-07-14)"
   sodipodi:docname="selector-short-dark.svg"
   xml:space="preserve"
   xmlns:inkscape="http://www.inkscape.org/namespaces/inkscape"
   xmlns:sodipodi="http://sodipodi.sourceforge.net/DTD/sodipodi-0.dtd"
   xmlns="http://www.w3.org/2000/svg"
   xmlns:svg="http://www.w3.org/2000/svg"><sodipodi:namedview
     id="namedview2472"
     pagecolor="#ffffff"
     bordercolor="#999999"
     borderopacity="1"
     inkscape:showpageshadow="0"
     inkscape:pageopacity="0"
     inkscape:pagecheckerboard="0"
     inkscape:deskcolor="#d1d1d1"
     inkscape:document-units="mm"
     showgrid="false"
     inkscape:zoom="1"
     inkscape:cx="-34"
     inkscape:cy="248"
     inkscape:window-width="2560"
     inkscape:window-height="1295"
     inkscape:window-x="0"
     inkscape:window-y="32"
     inkscape:window-maximized="1"
     inkscape:current-layer="layer1" /><defs
     id="defs2467"><linearGradient
       id="linearGradient12832"><stop
         style="stop-color:#ff0dbe;stop-opacity:1;"
         offset="0"
         id="stop12830" /><stop
         style="stop-color:#007fff;stop-opacity:1;"
         offset="1"
         id="stop12820" /></linearGradient></defs><g
     inkscape:label="Layer 1"
     inkscape:groupmode="layer"
     id="layer1"
     transform="translate(-15.632656,-60.501398)"><path
       id="path7769"
       style="color:#000000;-inkscape-font-specification:'sans-serif, Normal';fill:#aeaeae;stroke-width:2.5;stroke-linecap:round;stroke-linejoin:round;fill-opacity:1"
       d="m 32.695162,60.501665 c -2.318246,0 -4.538241,0.420293 -6.626986,1.259872 -5.44e-4,2.16e-4 -0.0015,-2.16e-4 -0.0021,0 -0.0013,5.36e-4 -0.0023,0.0015 -0.0036,0.0021 -2.088717,0.828936 -3.946807,2.039885 -5.542814,3.611149 -0.0014,0.0012 -0.0028,0.0024 -0.0041,0.0036 -1.56223,1.54983 -2.775155,3.36283 -3.617351,5.406389 -0.84264,2.044628 -1.265556,4.2078 -1.265555,6.453353 0,2.318032 0.414419,4.519074 1.246435,6.568074 v 0.0021 c 0.832757,2.03839 2.054789,3.850028 3.642155,5.400187 1.581844,1.544774 3.405342,2.730795 5.437911,3.537252 2.034379,0.818712 4.20505,1.228866 6.478158,1.228866 1.83066,0 3.637813,-0.306581 5.400703,-0.910539 1.078321,-0.369514 1.139994,-1.871338 0.0956,-2.328023 -0.977342,-0.427851 -1.826652,-0.945523 -2.556433,-1.588017 -0.281995,-0.248388 -0.660767,-0.356744 -1.031462,-0.295073 -0.630516,0.105283 -1.265656,0.158647 -1.90841,0.158647 -1.656795,0 -3.185468,-0.288105 -4.61884,-0.859379 -0.0026,-0.0014 -0.0052,-0.0028 -0.0078,-0.0041 -1.431484,-0.560142 -2.674035,-1.367676 -3.762045,-2.445329 l -0.0078,-0.0078 c -1.13458,-1.103348 -1.989192,-2.360164 -2.591573,-3.802869 -3.55e-4,-8.51e-4 -0.0017,-0.0012 -0.0021,-0.0021 -0.589575,-1.439835 -0.886768,-2.977567 -0.886768,-4.651912 0,-2.025766 0.454187,-3.860668 1.368909,-5.576404 v -0.0021 c 0.927738,-1.729842 2.183754,-3.095369 3.816821,-4.156336 0.0038,-0.0026 0.0076,-0.0051 0.01137,-0.0078 0.99403,-0.662687 2.07162,-1.158653 3.24838,-1.491899 0.0033,-6.76e-4 0.0065,-0.0014 0.0098,-0.0021 1.180548,-0.344764 2.413814,-0.519865 3.714502,-0.519865 1.855242,0 3.52668,0.364971 5.066357,1.088306 0.0033,0.0012 0.0065,0.0024 0.0098,0.0036 1.549391,0.712723 2.839317,1.729316 3.918107,3.088184 6.88e-4,5.17e-4 0.0014,0.001 0.0021,0.0015 0.647319,0.80915 1.116902,1.673143 1.425753,2.60966 0.0014,0.0033 0.0027,0.0066 0.0041,0.0098 0.04138,0.12155 0.0812,0.246946 0.118856,0.376722 0.150892,0.521733 0.621388,0.886352 1.16427,0.90227 0.814034,0.02299 1.634012,0.09031 2.458764,0.201538 0.86348,0.116701 1.578489,-0.663574 1.386996,-1.513602 -0.111433,-0.493449 -0.250433,-0.987803 -0.42013,-1.476913 -0.491442,-1.449131 -1.213251,-2.797397 -2.15439,-4.027144 -6.88e-4,-6.9e-4 -0.0014,-0.0014 -0.0021,-0.0021 -1.52666,-1.985902 -3.443764,-3.538412 -5.703011,-4.61884 l -0.0021,-0.0021 C 37.753974,61.041675 35.299579,60.5014 32.694943,60.5014 Z m -1.101225,7.837765 c -2.268346,0 -4.298534,0.903521 -5.752104,2.585889 -1.455811,1.684967 -2.166276,3.894432 -2.166276,6.416145 0,2.519693 0.701727,4.724381 2.144572,6.409945 0.0026,0.0033 0.0052,0.0066 0.0078,0.0098 1.456072,1.671791 3.490566,2.564701 5.766056,2.564701 0.08893,0 0.145323,-0.0037 0.171566,-0.0041 0.779575,-0.01206 1.358042,-0.726969 1.207161,-1.491899 -0.123904,-0.625909 -0.185518,-1.276657 -0.185518,-1.939416 0,-0.09443 9.17e-4,-0.191282 0.0036,-0.287321 0.01792,-0.643878 -0.456325,-1.195974 -1.09554,-1.275375 -0.826405,-0.102791 -1.369502,-0.390775 -1.843815,-0.929659 -3.51e-4,-4.06e-4 3.52e-4,-0.0016 0,-0.0021 -0.579197,-0.669607 -0.917774,-1.620013 -0.917774,-3.054594 0,-1.408221 0.333687,-2.348291 0.915707,-3.021521 5.48e-4,-6.33e-4 0.0015,-0.0014 0.0021,-0.0021 0.59617,-0.675906 1.275566,-0.980302 2.379183,-0.980302 1.117413,0 1.798258,0.308544 2.396236,0.997872 l 0.0062,0.0062 c 0.147234,0.167681 0.277191,0.351954 0.390674,0.554488 0.351742,0.62542 1.156601,0.827047 1.76165,0.441316 0.918705,-0.586681 1.946048,-1.019088 3.066479,-1.312581 0.548801,-0.144794 0.931186,-0.641131 0.931209,-1.208712 v -2.880961 c -4e-5,-0.690167 -0.559369,-1.249728 -1.249536,-1.250053 h -2.462899 c -0.548679,0.07914 -0.979709,0.510171 -1.05885,1.05885 C 35.73947,69.565663 35.545263,69.258121 35.252112,69.118711 34.16294,68.58924 32.928396,68.33943 31.593937,68.33943 Z m 12.219409,5.960876 c -3.007353,0 -5.537253,0.709259 -7.421769,2.243791 -6.92e-4,0.0014 -0.0014,0.0028 -0.0021,0.0041 -1.870516,1.534096 -2.853573,3.773276 -2.853573,6.339665 0,2.209865 0.70065,4.148407 2.12907,5.506124 1.426605,1.355973 3.522988,2.205112 6.250264,2.748152 0.0019,6.94e-4 0.0038,0.0014 0.0057,0.0021 l 2.117184,0.413928 c 1.63981,0.331125 2.702958,0.833501 3.197221,1.290877 l 0.0078,0.0078 c 0.50863,0.463755 0.763778,1.033305 0.763778,2.039152 0,1.136176 -0.319257,1.761968 -1.101742,2.328024 -0.784469,0.567485 -2.044142,0.933793 -3.866947,0.933793 -1.181091,0 -2.390628,-0.18012 -3.640605,-0.550871 -1.254127,-0.37199 -2.554244,-0.930697 -3.896403,-1.683618 -0.833868,-0.467414 -1.862479,0.135989 -1.861385,1.091923 v 3.581694 c -1.05e-4,0.52469 0.327439,0.99361 0.820105,1.17409 1.52291,0.55921 3.000982,0.98567 4.437455,1.27538 h 0.0021 c 1.447417,0.28949 2.82717,0.43769 4.138766,0.43769 3.393049,0 6.12713,-0.66671 8.101314,-2.19159 1.983514,-1.523458 3.002401,-3.885747 3.002401,-6.656447 0,-2.335635 -0.738237,-4.386823 -2.224671,-5.875094 -1.478501,-1.503423 -3.639714,-2.443864 -6.38514,-2.966744 h -0.0036 l -2.08411,-0.425813 c -0.0071,-0.0013 -0.01411,-0.002 -0.02119,-0.0031 -1.80617,-0.337345 -2.952387,-0.828802 -3.308842,-1.121895 -0.371356,-0.323442 -0.580326,-0.746905 -0.580326,-1.630908 0,-1.038213 0.285635,-1.593849 1.008207,-2.115117 0.739432,-0.525816 1.934749,-0.870748 3.667993,-0.870748 0.972518,0 1.993587,0.138238 3.072164,0.423747 1.080864,0.286114 2.257173,0.726342 3.519682,1.330151 0.829341,0.396227 1.788349,-0.207932 1.789038,-1.127063 v -3.392557 c -3.59e-4,-0.538157 -0.345084,-1.015692 -0.855762,-1.185458 -1.363279,-0.454417 -2.703535,-0.797594 -4.02146,-1.027327 -1.318365,-0.229809 -2.619124,-0.347783 -3.900537,-0.347783 z m 0.395842,6.076115 c -1.526688,0 -2.158264,0.297591 -2.875665,0.559602 -0.03929,0.01435 -0.07936,0.02932 -0.117173,0.04364 -0.110034,0.04165 -0.280452,0.126177 -0.381293,0.187074 -0.09009,0.05441 -0.242152,0.197887 -0.339627,0.320475 -0.0036,0.0045 -0.0071,0.0089 -0.0106,0.01333 -0.05621,0.07069 -0.125683,0.197773 -0.155174,0.283845 -0.01406,0.04104 -0.02881,0.08408 -0.04138,0.120785 -0.01786,0.05214 -0.03529,0.139332 -0.03893,0.194748 -0.0016,0.02438 -0.0033,0.05035 -0.0049,0.07438 -0.0034,0.05134 -8.33e-4,0.13435 0.0059,0.185366 0.03187,0.241146 0.03004,0.190165 0.03289,0.255362 0.04732,0.259339 0.326663,1.056484 0.72448,1.271237 -2.08e-4,-9.5e-5 1.86e-4,0.0021 0,0.0021 0.0019,6.94e-4 0.0038,0.0014 0.0057,0.0021 0.467966,0.192205 -0.0015,-5.11e-4 0.467155,0.19117 0.453545,0.164563 1.042673,0.334004 1.763717,0.482657 0.330876,0.06843 0.675363,2.2e-5 0.95498,-0.189652 0.460654,-0.312709 0.893058,-0.662776 1.296562,-1.048515 0.276669,-0.264489 0.535843,-0.542332 0.775663,-0.83199 0.628578,-0.76028 0.170155,-1.91498 -0.808736,-2.037085 -0.426574,-0.05303 -0.844146,-0.0801 -1.25367,-0.0801 z"
       inkscape:label="@S"
       sodipodi:nodetypes="ssccccssccscsccccsccccscsccccccscccccccccccccccssssccsccsccscsscscccccccccccssccsscccccssssccccccscsccccccscssccccsscccsssssccccccsccccsc"
       inkscape:export-filename="path7769.svg"
       inkscape:export-xdpi="96"
       inkscape:export-ydpi="96" /></g></svg>
