<?xml version="1.0" encoding="UTF-8" standalone="no"?>
<!-- Created with Inkscape (http://www.inkscape.org/) -->

<svg
   width="145.09215mm"
   height="29.802307mm"
   viewBox="0 0 145.09215 29.802307"
   version="1.1"
   id="svg2470"
   inkscape:version="1.2.1 (9c6d41e410, 2022-07-14)"
   sodipodi:docname="selector.svg"
   xmlns:inkscape="http://www.inkscape.org/namespaces/inkscape"
   xmlns:sodipodi="http://sodipodi.sourceforge.net/DTD/sodipodi-0.dtd"
   xmlns:xlink="http://www.w3.org/1999/xlink"
   xmlns="http://www.w3.org/2000/svg"
   xmlns:svg="http://www.w3.org/2000/svg">
  <sodipodi:namedview
     id="namedview2472"
     pagecolor="#ffffff"
     bordercolor="#999999"
     borderopacity="1"
     inkscape:showpageshadow="0"
     inkscape:pageopacity="0"
     inkscape:pagecheckerboard="0"
     inkscape:deskcolor="#d1d1d1"
     inkscape:document-units="mm"
     showgrid="false"
     inkscape:zoom="0.914906"
     inkscape:cx="396.76207"
     inkscape:cy="560.71334"
     inkscape:window-width="2560"
     inkscape:window-height="1295"
     inkscape:window-x="0"
     inkscape:window-y="32"
     inkscape:window-maximized="1"
     inkscape:current-layer="layer1" />
  <defs
     id="defs2467">
    <linearGradient
       id="linearGradient12832">
      <stop
         style="stop-color:#ff57d2;stop-opacity:1;"
         offset="0"
         id="stop12830" />
      <stop
         style="stop-color:#ff60a6;stop-opacity:1;"
         offset="0.19999999"
         id="stop12828" />
      <stop
         style="stop-color:#ff827e;stop-opacity:1;"
         offset="0.39999998"
         id="stop12826" />
      <stop
         style="stop-color:#ffac61;stop-opacity:1;"
         offset="0.62"
         id="stop12824" />
      <stop
         style="stop-color:#ffd459;stop-opacity:1;"
         offset="0.81999999"
         id="stop12822" />
      <stop
         style="stop-color:#f9f871;stop-opacity:1;"
         offset="1"
         id="stop12820" />
    </linearGradient>
    <linearGradient
       id="Selector">
      <stop
         style="stop-color:#ff57d2;stop-opacity:1;"
         offset="0"
         id="stop6066" />
      <stop
         style="stop-color:#ff60a6;stop-opacity:1;"
         offset="0.19999999"
         id="stop7541" />
      <stop
         style="stop-color:#ff827e;stop-opacity:1;"
         offset="0.39999998"
         id="stop6087" />
      <stop
         style="stop-color:#ffac61;stop-opacity:1;"
         offset="0.62"
         id="stop6079" />
      <stop
         style="stop-color:#ffd459;stop-opacity:1;"
         offset="0.81999999"
         id="stop6081" />
      <stop
         style="stop-color:#f9f871;stop-opacity:1;"
         offset="1"
         id="stop6076" />
    </linearGradient>
    <linearGradient
       id="linearGradient932-1">
      <stop
         style="stop-color:#ff57d2;stop-opacity:1;"
         offset="0"
         id="stop928" />
      <stop
         style="stop-color:#ff5bbc;stop-opacity:1;"
         offset="0.5"
         id="stop2388" />
      <stop
         style="stop-color:#ff6e9d;stop-opacity:1;"
         offset="0.75"
         id="stop3116" />
      <stop
         style="stop-color:#ff827e;stop-opacity:1;"
         offset="0.875"
         id="stop3844" />
      <stop
         style="stop-color:#ffd459;stop-opacity:1;"
         offset="0.875"
         id="stop4572" />
      <stop
         style="stop-color:#f9f871;stop-opacity:1;"
         offset="1"
         id="stop930" />
    </linearGradient>
    <rect
       x="140.96994"
       y="356.95193"
       width="806.52203"
       height="426.59619"
       id="rect3425" />
    <linearGradient
       inkscape:collect="always"
       xlink:href="#Selector"
       id="linearGradient4268"
       gradientUnits="userSpaceOnUse"
       x1="145.03552"
       y1="368.89362"
       x2="693.41602"
       y2="481.53189" />
    <linearGradient
       inkscape:collect="always"
       xlink:href="#linearGradient12832"
       id="linearGradient12631"
       x1="145.03552"
       y1="368.89362"
       x2="693.41602"
       y2="481.53189"
       gradientUnits="userSpaceOnUse" />
  </defs>
  <g
     inkscape:label="Layer 1"
     inkscape:groupmode="layer"
     id="layer1"
     transform="translate(-25.725365,-123.61151)">
    <path
       id="path4005"
       style="font-size:133.333px;-inkscape-font-specification:'sans-serif, Normal';white-space:pre;shape-inside:url(#rect3425);display:inline;fill:url(#linearGradient4268);stroke:url(#linearGradient12631);stroke-width:9.44882;stroke-linecap:round;stroke-linejoin:round;stroke-opacity:1;fill-opacity:1"
       d="M 320.20134 373.61802 L 320.20134 474.91881 L 332.18181 474.91881 L 332.18181 373.61802 L 320.20134 373.61802 z M 183.87517 375.96177 C 173.24153 375.96177 164.88513 378.43575 158.80876 383.38365 C 152.77579 388.33154 149.75993 395.10243 149.75993 403.69615 C 149.75993 411.118 151.95244 416.91231 156.33611 421.07896 C 160.71977 425.24562 167.81617 428.30553 177.62517 430.25865 L 185.63298 431.82115 C 192.31698 433.16663 197.11172 435.18488 200.0197 437.87584 C 202.97108 440.5668 204.44743 444.29881 204.44743 449.0731 C 204.44743 454.54184 202.40814 458.75259 198.32829 461.70396 C 194.24844 464.65534 188.45413 466.12974 180.94548 466.12974 C 175.99758 466.12974 170.96152 465.37149 165.84001 463.8524 C 160.7185 462.33331 155.48908 460.0757 150.15056 457.08092 L 150.15056 470.62193 C 155.70609 472.66185 161.06572 474.20331 166.23064 475.24498 C 171.43895 476.28664 176.34481 476.80748 180.94548 476.80748 C 193.14162 476.80748 202.38452 474.37756 208.6779 469.51646 C 215.01469 464.65537 218.18376 457.51491 218.18376 448.09654 C 218.18376 440.19726 215.83999 433.90316 211.15251 429.21568 C 206.50843 424.4848 199.28182 421.18747 189.47282 419.32115 L 181.53142 417.69224 C 174.32658 416.34676 169.42073 414.58894 166.81657 412.41881 C 164.25582 410.20527 162.97673 406.952 162.97673 402.65513 C 162.97673 397.53363 164.90687 393.58329 168.7697 390.80552 C 172.67594 388.02776 178.20983 386.63951 185.37126 386.63951 C 189.49451 386.63951 193.77037 387.22546 198.19743 388.39732 C 202.6245 389.56919 207.33309 391.34807 212.32439 393.73521 L 212.32439 380.90904 C 207.37649 379.25974 202.53769 378.02275 197.80681 377.1981 C 193.07592 376.37345 188.43244 375.96177 183.87517 375.96177 z M 512.38884 381.29966 L 512.38884 402.00279 L 503.59978 402.00279 L 503.59978 411.31334 L 512.38884 411.31334 L 512.38884 450.89537 C 512.38884 460.00992 514.14667 466.30402 517.66228 469.77623 C 521.1779 473.20504 527.55815 474.91881 536.80291 474.91881 L 549.10759 474.91881 L 549.10759 464.89342 L 536.80291 464.89342 C 531.81161 464.89342 528.49127 464.04705 526.84197 462.35435 C 525.23607 460.66165 524.43377 456.84153 524.43377 450.89537 L 524.43377 411.31334 L 549.10759 411.31334 L 549.10759 402.00279 L 524.43377 402.00279 L 524.43377 381.29966 L 512.38884 381.29966 z M 268.70525 400.24498 C 257.76779 400.24498 249.06481 403.76063 242.59783 410.79185 C 236.17424 417.77967 232.96306 427.2409 232.96306 439.17662 C 232.96306 450.72172 236.3485 459.88042 243.11931 466.65123 C 249.93352 473.42204 259.15538 476.80748 270.78728 476.80748 C 275.43136 476.80748 280.01169 476.3307 284.52556 475.37584 C 289.03944 474.42098 293.44354 473.03078 297.7404 471.20787 L 297.7404 459.87974 C 293.48694 462.13667 289.19004 463.8294 284.84978 464.95787 C 280.55292 466.08633 276.10476 466.65123 271.50408 466.65123 C 263.5614 466.65123 257.3554 464.50277 252.88493 460.20592 C 248.45787 455.86565 245.98389 449.57155 245.46306 441.32506 L 300.54119 441.32506 L 300.54119 435.46568 C 300.54119 424.61503 297.67658 416.04422 291.94744 409.75084 C 286.26169 403.41405 278.51424 400.24498 268.70525 400.24498 z M 387.77947 400.24498 C 376.84201 400.24498 368.14099 403.76063 361.674 410.79185 C 355.25041 417.77967 352.03728 427.2409 352.03728 439.17662 C 352.03728 450.72172 355.42272 459.88042 362.19353 466.65123 C 369.00774 473.42204 378.23155 476.80748 389.86345 476.80748 C 394.50753 476.80748 399.08591 476.3307 403.59978 475.37584 C 408.11366 474.42098 412.51972 473.03078 416.81658 471.20787 L 416.81658 459.87974 C 412.56312 462.13667 408.26621 463.8294 403.92595 464.95787 C 399.6291 466.08633 395.18093 466.65123 390.58025 466.65123 C 382.63757 466.65123 376.42962 464.50277 371.95916 460.20592 C 367.53209 455.86565 365.05811 449.57155 364.53728 441.32506 L 419.61541 441.32506 L 419.61541 435.46568 C 419.61541 424.61503 416.7508 416.04422 411.02166 409.75084 C 405.33591 403.41405 397.58846 400.24498 387.77947 400.24498 z M 470.72283 400.24498 C 459.35134 400.24498 450.38795 403.65342 443.83416 410.46763 C 437.32376 417.28185 434.06853 426.63391 434.06853 438.52623 C 434.06853 450.24494 437.30271 459.5549 443.7697 466.45592 C 450.23669 473.35694 458.96072 476.80748 469.94158 476.80748 C 473.97803 476.80748 477.77515 476.41686 481.33416 475.6356 C 484.93658 474.85436 488.40818 473.68247 491.75017 472.11998 L 491.75017 461.05162 C 488.36477 462.91793 484.95827 464.32918 481.52947 465.28404 C 478.14406 466.19549 474.71457 466.65123 471.24236 466.65123 C 463.47329 466.65123 457.44157 464.1983 453.1447 459.29381 C 448.84785 454.3459 446.69939 447.42377 446.69939 438.52623 C 446.69939 429.62869 448.84785 422.7276 453.1447 417.8231 C 457.44157 412.87521 463.47329 410.40123 471.24236 410.40123 C 474.71457 410.40123 478.14406 410.87802 481.52947 411.83287 C 484.95827 412.74433 488.36477 414.13453 491.75017 416.00084 L 491.75017 404.80357 C 488.45158 403.28448 485.04508 402.1547 481.52947 401.41685 C 478.01385 400.63561 474.41205 400.24498 470.72283 400.24498 z M 593.11736 400.24498 C 582.65732 400.24498 574.45414 403.63041 568.50799 410.40123 C 562.60522 417.17203 559.65447 426.54711 559.65447 438.52623 C 559.65447 450.46195 562.60522 459.83701 568.50799 466.65123 C 574.45414 473.42204 582.65732 476.80748 593.11736 476.80748 C 603.53399 476.80748 611.71612 473.42204 617.66228 466.65123 C 623.60844 459.83701 626.58221 450.46195 626.58221 438.52623 C 626.58221 426.54711 623.60844 417.17203 617.66228 410.40123 C 611.71612 403.63041 603.53399 400.24498 593.11736 400.24498 z M 682.57049 400.24498 C 676.79794 400.24498 671.89404 401.33071 667.8576 403.50084 C 663.82115 405.62757 660.54487 408.90385 658.02752 413.33091 L 658.02752 402.00279 L 645.9826 402.00279 L 645.9826 474.91881 L 658.02752 474.91881 L 658.02752 436.50865 C 658.02752 428.26215 659.82745 421.947 663.42986 417.56334 C 667.07568 413.13627 672.28406 410.92271 679.05486 410.92271 C 680.96458 410.92271 682.70135 411.11803 684.26385 411.50865 C 685.86974 411.85588 687.3461 412.41881 688.69158 413.20006 L 688.62517 400.89732 C 687.4099 400.68031 686.30312 400.5271 685.30486 400.44029 C 684.3066 400.31008 683.39514 400.24498 682.57049 400.24498 z M 268.83415 410.40123 C 274.73691 410.40123 279.4685 412.35437 283.02751 416.2606 C 286.62993 420.16684 288.47391 425.39626 288.56072 431.95006 L 245.85368 432.01646 C 246.46132 425.15885 248.76103 419.84132 252.75408 416.06529 C 256.79052 412.28927 262.15015 410.40123 268.83415 410.40123 z M 387.91033 410.40123 C 393.81308 410.40123 398.54467 412.35437 402.10369 416.2606 C 405.7061 420.16684 407.55008 425.39626 407.63689 431.95006 L 364.9279 432.01646 C 365.53554 425.15885 367.83721 419.84132 371.83025 416.06529 C 375.86669 412.28927 381.22632 410.40123 387.91033 410.40123 z M 593.11736 410.40123 C 599.49755 410.40123 604.55466 412.94031 608.28728 418.01842 C 612.01991 423.05312 613.88689 429.88911 613.88689 438.52623 C 613.88689 447.20675 612.01991 454.06379 608.28728 459.09849 C 604.55466 464.1332 599.49755 466.65123 593.11736 466.65123 C 586.65037 466.65123 581.55116 464.1562 577.81853 459.1649 C 574.12931 454.1302 572.28533 447.25016 572.28533 438.52623 C 572.28533 429.8023 574.15036 422.94526 577.88299 417.95396 C 581.61562 412.91926 586.69377 410.40123 593.11736 410.40123 z "
       transform="matrix(0.26458333,0,0,0.26458333,-12.648563,26.008462)"
       inkscape:label="Selector" />
  </g>
</svg>
