<?xml version="1.0" encoding="UTF-8" standalone="no"?>
<!-- Created with Inkscape (http://www.inkscape.org/) -->

<svg
   width="38.509323mm"
   height="42.982437mm"
   viewBox="0 0 38.509323 42.982437"
   version="1.1"
   id="svg2470"
   inkscape:version="1.2.1 (9c6d41e410, 2022-07-14)"
   sodipodi:docname="automatic-save-1000-2022_09_09_19_01_07-2-1.svg"
   xml:space="preserve"
   xmlns:inkscape="http://www.inkscape.org/namespaces/inkscape"
   xmlns:sodipodi="http://sodipodi.sourceforge.net/DTD/sodipodi-0.dtd"
   xmlns:xlink="http://www.w3.org/1999/xlink"
   xmlns="http://www.w3.org/2000/svg"
   xmlns:svg="http://www.w3.org/2000/svg"><sodipodi:namedview
     id="namedview2472"
     pagecolor="#ffffff"
     bordercolor="#999999"
     borderopacity="1"
     inkscape:showpageshadow="0"
     inkscape:pageopacity="0"
     inkscape:pagecheckerboard="0"
     inkscape:deskcolor="#d1d1d1"
     inkscape:document-units="mm"
     showgrid="false"
     inkscape:zoom="1"
     inkscape:cx="-34"
     inkscape:cy="647"
     inkscape:window-width="2560"
     inkscape:window-height="1295"
     inkscape:window-x="0"
     inkscape:window-y="32"
     inkscape:window-maximized="1"
     inkscape:current-layer="layer1" /><defs
     id="defs2467"><linearGradient
       inkscape:collect="always"
       id="linearGradient1706"><stop
         style="stop-color:#9900ff;stop-opacity:1;"
         offset="0"
         id="stop1702" /><stop
         style="stop-color:#ff57d2;stop-opacity:1;"
         offset="1"
         id="stop1704" /></linearGradient><linearGradient
       inkscape:collect="always"
       xlink:href="#linearGradient1706"
       id="linearGradient1233"
       gradientUnits="userSpaceOnUse"
       gradientTransform="matrix(0.26458333,0,0,0.26458333,-22.741423,93.950308)"
       x1="145.03589"
       y1="376.31189"
       x2="290.5827"
       y2="538.76501" /></defs><g
     inkscape:label="Layer 1"
     inkscape:groupmode="layer"
     id="layer1"
     transform="translate(-15.632656,-193.51617)"><path
       id="path1231"
       style="color:#000000;-inkscape-font-specification:'sans-serif, Normal';fill:url(#linearGradient1233);fill-opacity:1;stroke-width:2.5;stroke-linecap:round;stroke-linejoin:round"
       d="m 32.695162,193.51616 c -2.318246,0 -4.538241,0.4203 -6.626986,1.25988 -5.44e-4,2.1e-4 -0.0015,-2.2e-4 -0.0021,0 -0.0013,5.3e-4 -0.0023,0.001 -0.0036,0.002 -2.088717,0.82893 -3.946807,2.03988 -5.542814,3.61115 -0.0014,10e-4 -0.0028,0.002 -0.0041,0.004 -1.56223,1.54983 -2.775155,3.36283 -3.617351,5.40639 -0.84264,2.04462 -1.265556,4.2078 -1.265555,6.45335 0,2.31803 0.414419,4.51907 1.246435,6.56807 v 0.002 c 0.832757,2.03839 2.054789,3.85003 3.642155,5.40019 1.581844,1.54477 3.405342,2.73079 5.437911,3.53725 2.034379,0.81871 4.20505,1.22887 6.478158,1.22887 1.83066,0 3.637813,-0.30658 5.400703,-0.91054 1.078321,-0.36952 1.139994,-1.87134 0.0956,-2.32803 -0.977342,-0.42785 -1.826652,-0.94552 -2.556433,-1.58801 -0.281995,-0.24839 -0.660767,-0.35675 -1.031462,-0.29508 -0.630516,0.10529 -1.265656,0.15865 -1.90841,0.15865 -1.656795,0 -3.185468,-0.2881 -4.61884,-0.85938 -0.0026,-0.001 -0.0052,-0.003 -0.0078,-0.004 -1.431484,-0.56014 -2.674035,-1.36767 -3.762045,-2.44533 l -0.0078,-0.008 c -1.13458,-1.10334 -1.989192,-2.36016 -2.591573,-3.80286 -3.55e-4,-8.6e-4 -0.0017,-0.001 -0.0021,-0.002 -0.589575,-1.43983 -0.886768,-2.97756 -0.886768,-4.65191 0,-2.02576 0.454187,-3.86066 1.368909,-5.5764 v -0.002 c 0.927738,-1.72984 2.183754,-3.09537 3.816821,-4.15634 0.0038,-0.003 0.0076,-0.005 0.01137,-0.008 0.99403,-0.66268 2.07162,-1.15865 3.24838,-1.4919 0.0033,-6.7e-4 0.0065,-0.001 0.0098,-0.002 1.180548,-0.34476 2.413814,-0.51986 3.714502,-0.51986 1.855242,0 3.52668,0.36497 5.066357,1.08831 0.0033,0.001 0.0065,0.002 0.0098,0.004 1.549391,0.71272 2.839317,1.72931 3.918107,3.08818 6.88e-4,5.2e-4 0.0014,0.001 0.0021,0.001 0.647319,0.80915 1.116902,1.67314 1.425753,2.60966 0.0014,0.003 0.0027,0.007 0.0041,0.01 0.04138,0.12155 0.0812,0.24694 0.118856,0.37672 0.150892,0.52173 0.621388,0.88635 1.16427,0.90227 0.814034,0.023 1.634012,0.0903 2.458764,0.20154 0.86348,0.1167 1.578489,-0.66357 1.386996,-1.5136 -0.111433,-0.49345 -0.250433,-0.98781 -0.42013,-1.47692 -0.491442,-1.44913 -1.213251,-2.79739 -2.15439,-4.02714 -6.88e-4,-6.9e-4 -0.0014,-0.001 -0.0021,-0.002 -1.52666,-1.9859 -3.443764,-3.53841 -5.703011,-4.61884 l -0.0021,-0.002 c -2.249567,-1.08082 -4.703962,-1.62109 -7.308598,-1.62109 z m -1.101225,7.83777 c -2.268346,0 -4.298534,0.90352 -5.752104,2.58589 -1.455811,1.68497 -2.166276,3.89443 -2.166276,6.41614 0,2.5197 0.701727,4.72438 2.144572,6.40995 0.0026,0.003 0.0052,0.007 0.0078,0.01 1.456072,1.67179 3.490566,2.5647 5.766056,2.5647 0.08893,0 0.145323,-0.004 0.171566,-0.004 0.779575,-0.0121 1.358042,-0.72697 1.207161,-1.4919 -0.123904,-0.62591 -0.185518,-1.27666 -0.185518,-1.93942 0,-0.0944 9.17e-4,-0.19128 0.0036,-0.28732 0.01792,-0.64387 -0.456325,-1.19597 -1.09554,-1.27537 -0.826405,-0.10279 -1.369502,-0.39078 -1.843815,-0.92966 -3.51e-4,-4.1e-4 3.52e-4,-0.002 0,-0.002 -0.579197,-0.66961 -0.917774,-1.62001 -0.917774,-3.05459 0,-1.40823 0.333687,-2.3483 0.915707,-3.02153 5.48e-4,-6.3e-4 0.0015,-0.001 0.0021,-0.002 0.59617,-0.67591 1.275566,-0.98031 2.379183,-0.98031 1.117413,0 1.798258,0.30855 2.396236,0.99787 l 0.0062,0.006 c 0.147234,0.16768 0.277191,0.35195 0.390674,0.55448 0.351742,0.62542 1.156601,0.82705 1.76165,0.44132 0.918705,-0.58668 1.946048,-1.01909 3.066479,-1.31258 0.548801,-0.1448 0.931186,-0.64113 0.931209,-1.20871 v -2.88096 c -4e-5,-0.69017 -0.559369,-1.24973 -1.249536,-1.25006 h -2.462899 c -0.548679,0.0791 -0.979709,0.51017 -1.05885,1.05885 -0.272348,-0.17828 -0.466555,-0.48582 -0.759706,-0.62523 -1.089172,-0.52947 -2.323716,-0.77928 -3.658175,-0.77928 z m 12.219409,5.96088 c -3.007353,0 -5.537253,0.70925 -7.421769,2.24379 -6.92e-4,10e-4 -0.0014,0.003 -0.0021,0.004 -1.870516,1.53409 -2.853573,3.77327 -2.853573,6.33966 0,2.20987 0.70065,4.14841 2.12907,5.50613 1.426605,1.35597 3.522988,2.20511 6.250264,2.74815 0.0019,6.9e-4 0.0038,0.001 0.0057,0.002 l 2.117184,0.41393 c 1.63981,0.33112 2.702958,0.8335 3.197221,1.29087 l 0.0078,0.008 c 0.50863,0.46376 0.763778,1.03331 0.763778,2.03915 0,1.13618 -0.319257,1.76197 -1.101742,2.32803 -0.784469,0.56748 -2.044142,0.93379 -3.866947,0.93379 -1.181091,0 -2.390628,-0.18012 -3.640605,-0.55087 -1.254127,-0.37199 -2.554244,-0.9307 -3.896403,-1.68362 -0.833868,-0.46741 -1.862479,0.13599 -1.861385,1.09193 v 3.58169 c -1.05e-4,0.52469 0.327439,0.99361 0.820105,1.17409 1.52291,0.55921 3.000982,0.98567 4.437455,1.27538 h 0.0021 c 1.447417,0.28949 2.82717,0.43769 4.138766,0.43769 3.393049,0 6.12713,-0.66671 8.101314,-2.19159 1.983514,-1.52346 3.002401,-3.88575 3.002401,-6.65645 0,-2.33563 -0.738237,-4.38682 -2.224671,-5.87509 -1.478501,-1.50342 -3.639714,-2.44387 -6.38514,-2.96675 h -0.0036 l -2.08411,-0.42581 c -0.0071,-0.001 -0.01411,-0.002 -0.02119,-0.003 -1.80617,-0.33734 -2.952387,-0.8288 -3.308842,-1.12189 -0.371356,-0.32345 -0.580326,-0.74691 -0.580326,-1.63091 0,-1.03821 0.285635,-1.59385 1.008207,-2.11512 0.739432,-0.52581 1.934749,-0.87075 3.667993,-0.87075 0.972518,0 1.993587,0.13824 3.072164,0.42375 1.080864,0.28611 2.257173,0.72634 3.519682,1.33015 0.829341,0.39623 1.788349,-0.20793 1.789038,-1.12706 v -3.39256 c -3.59e-4,-0.53816 -0.345084,-1.01569 -0.855762,-1.18546 -1.363279,-0.45441 -2.703535,-0.79759 -4.02146,-1.02732 -1.318365,-0.22981 -2.619124,-0.34779 -3.900537,-0.34779 z m 0.395842,6.07611 c -1.526688,0 -2.158264,0.29759 -2.875665,0.5596 -0.03929,0.0143 -0.07936,0.0293 -0.117173,0.0436 -0.110034,0.0417 -0.280452,0.12618 -0.381293,0.18708 -0.09009,0.0544 -0.242152,0.19788 -0.339627,0.32047 -0.0036,0.005 -0.0071,0.009 -0.0106,0.0133 -0.05621,0.0707 -0.125683,0.19777 -0.155174,0.28385 -0.01406,0.041 -0.02881,0.0841 -0.04138,0.12078 -0.01786,0.0521 -0.03529,0.13933 -0.03893,0.19475 -0.0016,0.0244 -0.0033,0.0504 -0.0049,0.0744 -0.0034,0.0513 -8.33e-4,0.13435 0.0059,0.18537 0.03187,0.24114 0.03004,0.19016 0.03289,0.25536 0.04732,0.25934 0.326663,1.05648 0.72448,1.27123 -2.08e-4,-9e-5 1.86e-4,0.002 0,0.002 0.0019,6.9e-4 0.0038,10e-4 0.0057,0.002 0.467966,0.19221 -0.0015,-5.1e-4 0.467155,0.19117 0.453545,0.16457 1.042673,0.33401 1.763717,0.48266 0.330876,0.0684 0.675363,2e-5 0.95498,-0.18965 0.460654,-0.31271 0.893058,-0.66278 1.296562,-1.04851 0.276669,-0.26449 0.535843,-0.54234 0.775663,-0.83199 0.628578,-0.76029 0.170155,-1.91499 -0.808736,-2.03709 -0.426574,-0.053 -0.844146,-0.0801 -1.25367,-0.0801 z"
       inkscape:label="@S Night"
       sodipodi:nodetypes="ssccccssccscsccccsccccscsccccccscccccccccccccccssssccsccsccscsscscccccccccccssccsscccccssssccccccscsccccccscssccccsscccsssssccccccsccccsc" /></g></svg>
