<?xml version="1.0" encoding="UTF-8" standalone="no"?>
<!-- Created with Inkscape (http://www.inkscape.org/) -->

<svg
   width="180.36975mm"
   height="33.471252mm"
   viewBox="0 0 180.36975 33.471252"
   version="1.1"
   id="svg2470"
   inkscape:version="1.2.1 (9c6d41e410, 2022-07-14)"
   sodipodi:docname="selector-dark.svg"
   xml:space="preserve"
   xmlns:inkscape="http://www.inkscape.org/namespaces/inkscape"
   xmlns:sodipodi="http://sodipodi.sourceforge.net/DTD/sodipodi-0.dtd"
   xmlns="http://www.w3.org/2000/svg"
   xmlns:svg="http://www.w3.org/2000/svg"><sodipodi:namedview
     id="namedview2472"
     pagecolor="#ffffff"
     bordercolor="#999999"
     borderopacity="1"
     inkscape:showpageshadow="0"
     inkscape:pageopacity="0"
     inkscape:pagecheckerboard="0"
     inkscape:deskcolor="#d1d1d1"
     inkscape:document-units="mm"
     showgrid="false"
     inkscape:zoom="0.914906"
     inkscape:cx="396.76207"
     inkscape:cy="560.71334"
     inkscape:window-width="2560"
     inkscape:window-height="1295"
     inkscape:window-x="0"
     inkscape:window-y="32"
     inkscape:window-maximized="1"
     inkscape:current-layer="layer1" /><defs
     id="defs2467"><linearGradient
       id="linearGradient9813"><stop
         style="stop-color:#2980b9;stop-opacity:1;"
         offset="0"
         id="stop9801" /><stop
         style="stop-color:#27ae60;stop-opacity:1;"
         offset="1"
         id="stop9811" /></linearGradient><rect
       x="140.96994"
       y="356.95193"
       width="806.52203"
       height="426.59619"
       id="rect3425" /><linearGradient
       id="linearGradient12832"><stop
         style="stop-color:#808080;stop-opacity:1;"
         offset="0"
         id="stop12830" /><stop
         style="stop-color:#27ae60;stop-opacity:1;"
         offset="1"
         id="stop12820" /></linearGradient></defs><g
     inkscape:label="Layer 1"
     inkscape:groupmode="layer"
     id="layer1"
     transform="translate(-14.815122,-111.18054)"><path
       id="path976"
       style="color:#000000;-inkscape-font-specification:'sans-serif, Normal';fill:#aeaeae;stroke-width:2.5;stroke-linecap:round;stroke-linejoin:round;fill-opacity:1"
       d="M 31.87868 170.4062 C 29.560428 170.4062 27.338891 170.82648 25.250144 171.66607 C 25.249599 171.66628 25.248677 171.66585 25.248077 171.66607 C 25.246777 171.6666 25.245243 171.66714 25.243943 171.66814 C 23.155225 172.49707 21.297139 173.70802 19.701129 175.27928 A 1.250125 1.250125 0 0 0 19.696995 175.28135 C 18.134761 176.83118 16.922355 178.64418 16.080161 180.68774 C 15.237519 182.73237 14.814605 184.89503 14.814605 187.14058 C 14.814605 189.45862 15.228505 191.66017 16.060524 193.70917 A 1.250125 1.250125 0 0 0 16.062591 193.7133 C 16.895349 195.7517 18.117892 197.56125 19.705263 199.11142 C 21.28711 200.65619 23.10802 201.84428 25.14059 202.65074 C 27.174968 203.46946 29.34615 203.87702 31.619264 203.87702 C 33.505947 203.87702 35.369146 203.55162 37.183782 202.91016 C 37.184882 202.90978 37.1863 202.91053 37.1874 202.91016 C 39.011397 202.28041 40.700606 201.36349 42.238254 200.17027 A 1.250125 1.250125 0 0 0 42.44341 198.39467 L 40.8926 196.48264 A 1.250125 1.250125 0 0 0 39.154205 196.28317 C 38.066866 197.13004 36.878486 197.77468 35.570444 198.22465 A 1.250125 1.250125 0 0 0 35.560626 198.22879 C 34.265289 198.68841 32.958425 198.91453 31.619264 198.91453 C 29.962469 198.91453 28.433284 198.62642 26.999908 198.05516 A 1.250125 1.250125 0 0 0 26.994224 198.05309 C 25.562749 197.49296 24.320191 196.68542 23.232179 195.60776 A 1.250125 1.250125 0 0 0 23.222361 195.59949 C 22.089242 194.49756 21.235115 193.24113 20.632855 191.80076 L 20.632855 191.79869 C 20.042236 190.35775 19.74402 188.81641 19.74402 187.14058 C 19.74402 185.11571 20.197463 183.28133 21.111379 181.56624 L 21.113446 181.56417 C 21.113737 181.56363 21.113155 181.56362 21.113446 181.56262 C 22.041056 179.83394 23.29539 178.46676 24.927683 177.40629 A 1.250125 1.250125 0 0 0 24.939569 177.39802 C 25.933603 176.73533 27.01067 176.24092 28.187432 175.90767 A 1.250125 1.250125 0 0 0 28.197251 175.90405 C 29.377801 175.55928 30.611579 175.38625 31.91227 175.38625 C 33.767516 175.38625 35.438944 175.7507 36.978627 176.47404 A 1.250125 1.250125 0 0 0 36.988446 176.47818 C 38.537842 177.1909 39.827243 178.20543 40.906036 179.56429 A 1.250125 1.250125 0 0 0 40.91017 179.56791 C 41.557491 180.37706 42.027072 181.23899 42.335923 182.1755 A 1.250125 1.250125 0 0 0 42.340057 182.18739 C 42.66094 183.12999 42.824265 184.14211 42.824265 185.24612 C 42.824265 187.08326 42.404468 188.44731 41.638808 189.48048 A 1.250125 1.250125 0 0 0 41.638808 189.48203 C 41.185812 190.09523 40.616354 190.49586 39.966558 190.80237 L 39.966558 179.83766 A 1.250125 1.250125 0 0 0 38.717022 178.58761 L 36.254123 178.58761 A 1.250125 1.250125 0 0 0 35.193206 179.64853 C 34.921201 179.47044 34.728452 179.16249 34.43563 179.02324 C 33.346463 178.49377 32.109858 178.24396 30.775388 178.24396 C 28.507037 178.24396 26.476855 179.14748 25.023284 180.82985 C 23.56747 182.51482 22.859592 184.72221 22.859592 187.24393 C 22.859592 189.76363 23.55925 191.97037 25.002097 193.65594 A 1.250125 1.250125 0 0 0 25.009849 193.66421 C 26.465922 195.33601 28.499893 196.22839 30.775388 196.22839 C 32.103832 196.22839 33.328224 195.99443 34.406174 195.49045 A 1.250125 1.250125 0 0 0 34.412375 195.48839 C 34.639917 195.38046 34.788762 195.13394 35.004071 195.00211 L 35.004071 195.04862 A 1.250125 1.250125 0 0 0 36.279445 196.29661 C 39.715862 196.22301 42.595061 195.22376 44.679966 193.23064 C 46.76613 191.23633 47.804841 188.45 47.80484 185.1779 C 47.80484 183.63103 47.549048 182.12161 47.045196 180.67172 C 47.044825 180.67072 47.045567 180.6691 47.045196 180.6681 C 46.553823 179.22274 45.833407 177.87719 44.894423 176.65026 A 1.250125 1.250125 0 0 0 44.892356 176.64819 C 43.365479 174.66201 41.44901 173.10774 39.189345 172.02729 L 39.187278 172.02729 C 36.937456 170.9462 34.483545 170.4062 31.87868 170.4062 z M 96.439597 172.24019 A 1.250125 1.250125 0 0 0 95.189544 173.49025 L 95.189544 200.29274 A 1.250125 1.250125 0 0 0 96.439597 201.5428 L 99.607362 201.5428 A 1.250125 1.250125 0 0 0 100.85742 200.29274 L 100.85742 173.49025 A 1.250125 1.250125 0 0 0 99.607362 172.24019 L 96.439597 172.24019 z M 60.368931 172.85928 C 57.361575 172.85928 54.83168 173.57111 52.947161 175.10565 A 1.250125 1.250125 0 0 0 52.945094 175.10772 C 51.074576 176.64182 50.091522 178.88305 50.091522 181.44945 C 50.091522 183.65932 50.792169 185.59528 52.220591 186.95299 C 53.647197 188.30897 55.743577 189.16017 58.470855 189.70321 A 1.250125 1.250125 0 0 0 58.47654 189.70321 L 60.593723 190.11714 C 62.233536 190.44826 63.296679 190.9527 63.790944 191.41008 A 1.250125 1.250125 0 0 0 63.798695 191.41628 C 64.307326 191.88003 64.562473 192.44959 64.562473 193.45544 C 64.562473 194.59161 64.243217 195.21741 63.460732 195.78346 C 62.676261 196.35095 61.41659 196.71674 59.593784 196.71674 C 58.412691 196.71674 57.203157 196.53713 55.953179 196.16638 C 54.699052 195.79438 53.398937 195.23724 52.056776 194.48431 A 1.250125 1.250125 0 0 0 50.195391 195.57417 L 50.195391 199.15638 A 1.250125 1.250125 0 0 0 51.015496 200.33047 C 52.538407 200.88966 54.016477 201.31613 55.452952 201.60584 A 1.250125 1.250125 0 0 0 55.455019 201.60584 C 56.902437 201.89533 58.282186 202.04303 59.593784 202.04303 C 62.985703 202.04303 65.719513 201.37936 67.693548 199.85556 L 67.695615 199.85349 C 69.679959 198.33007 70.697499 195.96886 70.697499 193.19757 C 70.697499 190.86496 69.961066 188.81389 68.478513 187.32609 L 68.476446 187.32454 C 66.99715 185.81866 64.833216 184.8788 62.084071 184.35573 L 62.101641 184.3578 L 59.999961 183.92785 A 1.250125 1.250125 0 0 0 59.978774 183.92372 C 58.172679 183.58644 57.026385 183.09596 56.669932 182.80286 C 56.298579 182.47942 56.089605 182.0575 56.089605 181.1735 C 56.089605 180.13528 56.375239 179.57758 57.097812 179.05631 C 57.837246 178.5305 59.032559 178.18557 60.765806 178.18557 C 61.738325 178.18557 62.759391 178.32381 63.837969 178.60931 C 64.918834 178.89543 66.095142 179.33772 67.357651 179.94153 A 1.250125 1.250125 0 0 0 69.146689 178.8124 L 69.146689 175.41984 A 1.250125 1.250125 0 0 0 68.290928 174.23439 C 66.927648 173.77998 65.587393 173.43679 64.269468 173.20706 C 62.9511 172.97725 61.650343 172.85929 60.368931 172.85928 z M 147.28921 174.27366 A 1.250125 1.250125 0 0 0 146.03915 175.52371 L 146.03915 179.74981 L 144.96273 179.74981 A 1.250125 1.250125 0 0 0 143.71268 180.99987 L 143.71268 183.46276 A 1.250125 1.250125 0 0 0 144.96273 184.71282 L 146.03915 184.71282 L 146.03915 193.93758 C 146.03915 196.50984 146.48565 198.51948 147.80494 199.82249 A 1.250125 1.250125 0 0 0 147.81062 199.82817 C 149.13275 201.11766 151.14777 201.54331 153.74824 201.54331 L 157.00386 201.54331 A 1.250125 1.250125 0 0 0 158.25391 200.29326 L 158.25391 197.64071 A 1.250125 1.250125 0 0 0 157.00386 196.39066 L 153.74824 196.39066 C 152.57559 196.39066 152.02052 196.09747 152.0176 196.09765 C 152.0907 196.17035 151.72459 195.39047 151.72459 193.93758 L 151.72459 184.71282 L 157.00386 184.71282 A 1.250125 1.250125 0 0 0 158.25391 183.46328 L 158.25391 180.99987 A 1.250125 1.250125 0 0 0 157.00386 179.74981 L 151.72459 179.74981 L 151.72459 175.5232 A 1.250125 1.250125 0 0 0 150.47454 174.27366 L 147.28921 174.27366 z M 82.814589 179.28524 C 79.652871 179.28524 76.934817 180.36167 74.986126 182.4804 C 73.046662 184.59021 72.107232 187.45364 72.107232 190.83596 C 72.107232 194.13495 73.117619 196.94732 75.160276 198.98998 A 1.250125 1.250125 0 0 0 75.162343 198.99205 C 77.217559 201.03417 80.045323 202.04303 83.36546 202.04303 C 84.680108 202.04303 85.978766 201.9074 87.257729 201.63685 C 88.530894 201.36753 89.774984 200.97594 90.984633 200.46276 A 1.250125 1.250125 0 0 0 91.746344 199.31038 L 91.746344 196.31469 A 1.250125 1.250125 0 0 0 89.91028 195.20882 C 88.864198 195.76389 87.819631 196.17497 86.771453 196.4475 A 1.250125 1.250125 0 0 0 86.767836 196.44957 C 85.736819 196.72034 84.669528 196.85575 83.554595 196.85575 C 81.680606 196.85575 80.413827 196.38043 79.497996 195.50182 C 78.835211 194.85005 78.436066 193.85674 78.17973 192.65445 L 91.236297 192.65445 A 1.250125 1.250125 0 0 0 92.48635 191.4044 L 92.48635 189.85566 C 92.48635 186.76648 91.643183 184.14254 89.888576 182.21323 C 88.145704 180.2728 85.677323 179.28524 82.814589 179.28524 z M 114.31861 179.28524 C 111.15688 179.28524 108.44099 180.36159 106.49221 182.4804 C 104.55267 184.5903 103.61125 187.45377 103.61125 190.83596 C 103.61125 194.13495 104.62319 196.94732 106.66585 198.98998 A 1.250125 1.250125 0 0 0 106.66791 198.99205 C 108.72304 201.03409 111.54882 202.04303 114.86896 202.04303 C 116.18361 202.04303 117.48478 201.90741 118.76382 201.63685 C 120.03706 201.36752 121.28068 200.97589 122.4902 200.46276 A 1.250125 1.250125 0 0 0 123.25191 199.31038 L 123.25191 196.31469 A 1.250125 1.250125 0 0 0 121.41585 195.20882 C 120.36977 195.76389 119.32365 196.17497 118.27547 196.4475 A 1.250125 1.250125 0 0 0 118.27341 196.44957 C 117.2424 196.72034 116.17561 196.85575 115.06068 196.85575 C 113.18669 196.85575 111.92004 196.38055 111.00408 195.50182 C 110.34129 194.85005 109.94164 193.85674 109.6853 192.65445 L 122.74238 192.65445 A 1.250125 1.250125 0 0 0 123.99244 191.4044 L 123.99244 189.85566 C 123.99244 186.76648 123.14926 184.14254 121.39466 182.21323 C 119.65178 180.2728 117.18134 179.28524 114.31861 179.28524 z M 136.26352 179.28524 C 133.0052 179.28524 130.23444 180.30967 128.25006 182.37291 A 1.250125 1.250125 0 0 0 128.24592 182.37704 C 126.27244 184.44261 125.31639 187.28979 125.31639 190.66439 C 125.31639 193.99481 126.26809 196.82479 128.2206 198.90833 C 130.17303 200.99181 132.88909 202.04303 136.0563 202.04303 C 137.20491 202.04303 138.30144 201.93094 139.33982 201.70299 C 140.38257 201.47667 141.39009 201.13765 142.35721 200.68549 A 1.250125 1.250125 0 0 0 143.07809 199.55274 L 143.07809 196.62475 A 1.250125 1.250125 0 0 0 141.22446 195.52921 C 140.40648 195.98016 139.59716 196.31433 138.79102 196.53897 C 138.79046 196.53913 138.78995 196.53882 138.78895 196.53897 C 138.0001 196.75047 137.208 196.85523 136.40202 196.85523 C 134.61208 196.85523 133.44656 196.35398 132.55626 195.34008 L 132.55626 195.33801 C 131.66322 194.30894 131.15789 192.81594 131.15789 190.66387 C 131.15789 188.51097 131.66266 187.02572 132.55264 186.0099 A 1.250125 1.250125 0 0 0 132.55677 186.00576 C 133.44905 184.97829 134.61235 184.47252 136.40253 184.47252 C 137.20679 184.47252 137.99725 184.58252 138.78533 184.8048 A 1.250125 1.250125 0 0 0 138.8029 184.81049 C 139.60421 185.0235 140.40971 185.3499 141.22446 185.79906 A 1.250125 1.250125 0 0 0 143.07809 184.703 L 143.07809 181.74194 A 1.250125 1.250125 0 0 0 142.35152 180.60557 C 141.39586 180.16545 140.40398 179.83769 139.38271 179.62321 L 139.38065 179.62321 C 138.36427 179.39838 137.3232 179.28524 136.26352 179.28524 z M 168.64863 179.28524 C 165.61137 179.28524 163.01046 180.33373 161.1974 182.39823 A 1.250125 1.250125 0 0 0 161.19533 182.40236 C 159.39368 184.46898 158.54278 187.28953 158.54278 190.66439 C 158.54278 194.02853 159.393 196.84798 161.1912 198.92384 A 1.250125 1.250125 0 0 0 161.1974 198.93004 C 163.01046 200.99454 165.61137 202.04303 168.64863 202.04303 C 171.67552 202.04303 174.26822 200.99334 176.08021 198.93004 A 1.250125 1.250125 0 0 0 176.08435 198.92797 C 177.8953 196.85266 178.7524 194.03 178.7524 190.66439 C 178.7524 187.28806 177.89463 184.46478 176.08021 182.39875 C 174.26822 180.33544 171.67552 179.28524 168.64863 179.28524 z M 192.31643 179.28524 C 190.63662 179.28524 189.12489 179.60224 187.8397 180.29086 C 187.52702 180.4556 187.27603 180.71132 186.99221 180.91977 A 1.250125 1.250125 0 0 0 185.82225 179.74981 L 182.63485 179.74981 A 1.250125 1.250125 0 0 0 181.3848 180.99987 L 181.3848 200.29274 A 1.250125 1.250125 0 0 0 182.63485 201.5428 L 185.82225 201.5428 A 1.250125 1.250125 0 0 0 187.07231 200.29274 L 187.07231 190.13109 C 187.07231 188.13222 187.50845 186.77513 188.21694 185.91223 C 188.94016 185.03403 189.86572 184.61153 191.38471 184.61153 C 191.80472 184.61153 192.16373 184.65393 192.46113 184.72832 A 1.250125 1.250125 0 0 0 192.49988 184.73659 C 192.80582 184.80279 193.06769 184.90641 193.30655 185.0451 A 1.250125 1.250125 0 0 0 195.18551 183.95731 L 195.16794 180.70118 A 1.250125 1.250125 0 0 0 194.13699 179.47696 C 193.79689 179.41626 193.48173 179.37293 193.1815 179.3457 C 192.88084 179.3071 192.59403 179.28524 192.31643 179.28524 z M 31.412042 183.24004 C 32.529463 183.24004 33.212366 183.55117 33.810345 184.24049 A 1.250125 1.250125 0 0 0 33.814479 184.24618 C 34.408585 184.92281 34.744138 185.85103 34.744138 187.24445 C 34.744138 188.66695 34.407952 189.6134 33.826365 190.28509 A 1.250125 1.250125 0 0 0 33.820164 190.29129 C 33.251064 190.95795 32.581677 191.26591 31.447182 191.26591 C 30.299215 191.26591 29.609769 190.9576 29.033376 190.30317 L 29.031309 190.30111 C 28.452461 189.63153 28.115085 188.67855 28.115085 187.24445 C 28.115085 185.8384 28.448889 184.90008 29.029241 184.22706 C 29.626356 183.54803 30.306004 183.24056 31.412042 183.24056 L 31.412042 183.24004 z M 82.847662 184.47252 C 84.133693 184.47252 84.969478 184.83577 85.67953 185.61509 A 1.250125 1.250125 0 0 0 85.683664 185.62129 C 86.168359 186.14686 86.444583 186.8551 86.619008 187.67594 L 78.330108 187.6899 C 78.577631 186.8534 78.918547 186.13767 79.45097 185.63317 C 80.267162 184.87117 81.316583 184.47304 82.847662 184.47304 L 82.847662 184.47252 z M 114.35375 184.47252 C 115.63977 184.47252 116.47366 184.83594 117.18355 185.61509 A 1.250125 1.250125 0 0 0 117.18975 185.62129 C 117.67437 186.14677 117.9508 186.85501 118.1251 187.67594 L 109.83413 187.6899 C 110.08121 186.85374 110.42181 186.13909 110.95344 185.63472 C 111.77008 184.87077 112.82066 184.47304 114.35375 184.47304 L 114.35375 184.47252 z M 168.64863 184.47252 C 170.00506 184.47252 170.86774 184.90853 171.65413 185.97837 A 1.250125 1.250125 0 0 0 171.65619 185.98251 C 172.44015 187.03995 172.89281 188.5593 172.89281 190.66439 C 172.89281 192.78188 172.43916 194.30723 171.65619 195.36333 C 170.87142 196.42187 170.00782 196.85575 168.64863 196.85575 C 167.26045 196.85575 166.38307 196.41879 165.60333 195.37728 C 165.6027 195.37645 165.60278 195.37622 165.60178 195.37522 C 164.83284 194.321 164.3848 192.79084 164.3848 190.66439 C 164.3848 188.53453 164.84097 187.00993 165.61935 185.96907 A 1.250125 1.250125 0 0 0 165.6209 185.96494 C 166.40412 184.90851 167.27547 184.47252 168.64863 184.47252 z "
       inkscape:label="@Selector"
       transform="translate(-2.9166664e-8,-59.225139)" /></g></svg>
