<?xml version="1.0" encoding="UTF-8" standalone="no"?>
<!-- Created with Inkscape (http://www.inkscape.org/) -->

<svg
   width="180.36975mm"
   height="33.471222mm"
   viewBox="0 0 180.36975 33.471222"
   version="1.1"
   id="svg2470"
   inkscape:version="1.2.1 (9c6d41e410, 2022-07-14)"
   sodipodi:docname="selector-night.svg"
   xml:space="preserve"
   xmlns:inkscape="http://www.inkscape.org/namespaces/inkscape"
   xmlns:sodipodi="http://sodipodi.sourceforge.net/DTD/sodipodi-0.dtd"
   xmlns:xlink="http://www.w3.org/1999/xlink"
   xmlns="http://www.w3.org/2000/svg"
   xmlns:svg="http://www.w3.org/2000/svg"><sodipodi:namedview
     id="namedview2472"
     pagecolor="#ffffff"
     bordercolor="#999999"
     borderopacity="1"
     inkscape:showpageshadow="0"
     inkscape:pageopacity="0"
     inkscape:pagecheckerboard="0"
     inkscape:deskcolor="#d1d1d1"
     inkscape:document-units="mm"
     showgrid="false"
     inkscape:zoom="0.914906"
     inkscape:cx="396.76207"
     inkscape:cy="473.27266"
     inkscape:window-width="2560"
     inkscape:window-height="1295"
     inkscape:window-x="0"
     inkscape:window-y="32"
     inkscape:window-maximized="1"
     inkscape:current-layer="layer1" /><defs
     id="defs2467"><linearGradient
       inkscape:collect="always"
       id="linearGradient3189"><stop
         style="stop-color:#0066ff;stop-opacity:1;"
         offset="0"
         id="stop3187" /><stop
         style="stop-color:#8685ef;stop-opacity:1;"
         offset="1"
         id="stop3185" /></linearGradient><linearGradient
       inkscape:collect="always"
       id="linearGradient1706"><stop
         style="stop-color:#0066ff;stop-opacity:1;"
         offset="0"
         id="stop1704" /><stop
         style="stop-color:#8685ef;stop-opacity:1;"
         offset="1"
         id="stop1702" /></linearGradient><rect
       x="140.96994"
       y="356.95193"
       width="806.52203"
       height="426.59619"
       id="rect3425" /><linearGradient
       inkscape:collect="always"
       xlink:href="#linearGradient1706"
       id="linearGradient470"
       gradientUnits="userSpaceOnUse"
       x1="145.03532"
       y1="425.21271"
       x2="693.4151"
       y2="425.21271"
       gradientTransform="matrix(0.26458333,0,0,0.26458333,-23.558896,112.00674)" /><linearGradient
       inkscape:collect="always"
       xlink:href="#linearGradient3189"
       id="linearGradient472"
       gradientUnits="userSpaceOnUse"
       x1="145.03532"
       y1="425.21271"
       x2="693.4151"
       y2="425.21271"
       gradientTransform="matrix(0.26458333,0,0,0.26458333,-23.558896,112.00674)" /></defs><g
     inkscape:label="Layer 1"
     inkscape:groupmode="layer"
     id="layer1"
     transform="translate(-14.815122,-152.34823)"><path
       id="path4350"
       style="font-size:133.333px;-inkscape-font-specification:'sans-serif, Normal';white-space:pre;shape-inside:url(#rect3425);display:inline;fill:url(#linearGradient470);fill-opacity:1;stroke:url(#linearGradient472);stroke-width:2.5;stroke-linecap:round;stroke-linejoin:round"
       inkscape:label="@Selctor Night"
       d="m 31.878109,212.82336 c -2.170404,0 -4.226335,0.39062 -6.167065,1.17151 -1.940729,0.7694 -3.651633,1.88349 -5.133019,3.34191 -1.446935,1.43545 -2.561029,3.10025 -3.341915,4.99505 -0.780889,1.89479 -1.170988,3.88739 -1.170988,5.97741 0,2.1704 0.384532,4.20302 1.153935,6.09782 0.769401,1.88331 1.889064,3.54254 3.358968,4.97799 1.4699,1.43545 3.146353,2.52623 5.029665,3.27266 1.883315,0.75792 3.887571,1.13689 6.012037,1.13689 1.745507,0 3.461983,-0.29841 5.150072,-0.89556 1.699575,-0.58566 3.267105,-1.43528 4.702556,-2.54919 l -1.550291,-1.91203 c -1.194295,0.93017 -2.509012,1.64199 -3.944464,2.13579 -1.423966,0.50527 -2.876489,0.75809 -4.357873,0.75809 -1.802926,0 -3.497122,-0.31615 -5.08186,-0.94775 -1.58474,-0.62011 -2.980012,-1.52698 -4.18579,-2.72128 -1.251715,-1.21726 -2.210263,-2.62419 -2.876312,-4.22041 -0.654566,-1.59622 -0.981853,-3.30713 -0.981853,-5.13302 0,-2.21634 0.505114,-4.27175 1.515671,-6.16655 1.022043,-1.90628 2.434543,-3.44545 4.237469,-4.61677 1.102426,-0.73495 2.302647,-1.28617 3.600296,-1.65365 1.297647,-0.37896 2.652385,-0.56844 4.064868,-0.56844 2.021115,0 3.887568,0.40228 5.598626,1.20613 1.72254,0.79237 3.18063,1.94039 4.374925,3.44475 0.734951,0.91869 1.280602,1.91777 1.636593,2.99723 0.367475,1.07946 0.551387,2.23358 0.551387,3.46232 0,2.0326 -0.476748,3.69183 -1.429885,4.97799 -0.941658,1.27468 -2.250803,2.0387 -3.927409,2.29134 v -12.67778 h -2.463417 v 2.25619 c -0.677531,-0.87275 -1.463823,-1.52124 -2.359546,-1.94613 -0.89572,-0.43638 -1.935345,-0.65475 -3.118157,-0.65475 -1.963695,0 -3.565675,0.71791 -4.805907,2.15336 -1.240229,1.43545 -1.860352,3.30139 -1.860352,5.59811 0,2.29672 0.614553,4.16266 1.8433,5.59811 1.240229,1.42397 2.847779,2.13579 4.822959,2.13579 1.182812,0 2.216349,-0.20671 3.100586,-0.62012 0.895723,-0.42489 1.6881,-1.07947 2.377117,-1.96371 v 2.65307 c 3.21541,-0.0689 5.736434,-0.97629 7.562329,-2.7218 1.825892,-1.7455 2.73885,-4.12821 2.73885,-7.1484 0,-1.41248 -0.230018,-2.77887 -0.689364,-4.09949 -0.447857,-1.32061 -1.102431,-2.54363 -1.963703,-3.66902 -1.412483,-1.83738 -3.163408,-3.25597 -5.253426,-4.25504 -2.078535,-0.99908 -4.335089,-1.49862 -6.769613,-1.49862 z m 64.560917,1.83451 v 26.80302 h 3.169313 v -26.80302 z m -36.07015,0.62012 c -2.813479,0 -5.02393,0.65458 -6.631636,1.96371 -1.596218,1.30913 -2.394685,3.10059 -2.394685,5.37435 0,1.96369 0.580104,3.49677 1.739944,4.5992 1.159844,1.10242 3.037438,1.91203 5.632731,2.42879 l 2.118736,0.41341 c 1.768472,0.35599 3.037601,0.88999 3.807002,1.60197 0.780886,0.71199 1.170987,1.69993 1.170987,2.96313 0,1.44693 -0.539562,2.56051 -1.619022,3.3414 -1.07946,0.78088 -2.612541,1.1715 -4.599202,1.1715 -1.309132,0 -2.641071,-0.20114 -3.996139,-0.60306 -1.355064,-0.40193 -2.739203,-0.99874 -4.151683,-1.79111 v 3.58273 c 1.469898,0.53973 2.888485,0.94757 4.255037,1.22318 1.378029,0.27561 2.675522,0.41341 3.892785,0.41341 3.226893,0 5.672931,-0.64344 7.338052,-1.9296 1.676607,-1.28616 2.515092,-3.17489 2.515092,-5.66683 0,-2.09002 -0.620122,-3.75534 -1.860351,-4.99557 -1.228744,-1.2517 -3.140792,-2.12464 -5.736085,-2.61844 l -2.101681,-0.43047 c -1.906275,-0.35599 -3.203768,-0.82108 -3.892785,-1.39526 -0.677529,-0.58566 -1.016474,-1.44694 -1.016474,-2.58382 0,-1.35506 0.511199,-2.40026 1.53324,-3.13521 1.033526,-0.73495 2.497703,-1.10226 4.392496,-1.10226 1.090943,0 2.221748,0.15503 3.393075,0.46509 1.171328,0.31006 2.417659,0.78072 3.738274,1.41232 v -3.39308 c -1.309132,-0.43637 -2.589917,-0.76366 -3.841626,-0.98185 -1.251715,-0.21819 -2.480302,-0.32763 -3.686082,-0.32763 z m 86.919754,1.41283 v 5.47771 h -2.32544 v 2.4629 h 2.32544 v 10.47326 c 0,2.41155 0.4651,4.07687 1.39527,4.99556 0.93017,0.9072 2.61777,1.36064 5.06377,1.36064 h 3.25562 v -2.65255 h -3.25562 c -1.32061,0 -2.19912,-0.22394 -2.6355,-0.6718 -0.42489,-0.44786 -0.63717,-1.4586 -0.63717,-3.03185 v -10.47326 h 6.52829 v -2.4629 H 150.475 v -5.47771 z m -64.475129,5.01262 c -2.893865,0 -5.196017,0.93018 -6.90707,2.79053 -1.699575,1.84886 -2.549715,4.35214 -2.549715,7.51013 0,3.05464 0.895731,5.47788 2.687174,7.26933 1.802924,1.79144 4.243396,2.68717 7.321,2.68717 1.228743,0 2.440109,-0.12667 3.634404,-0.37931 1.194292,-0.25263 2.360067,-0.61994 3.496942,-1.10225 v -2.99724 c -1.125392,0.59715 -2.262285,1.04502 -3.410643,1.34359 -1.136878,0.29857 -2.313789,0.44804 -3.53105,0.44804 -2.101501,0 -3.744021,-0.56845 -4.926833,-1.70532 -1.171326,-1.14837 -1.8259,-2.81368 -1.963703,-4.99557 H 91.23676 v -1.55029 c 0,-2.8709 -0.757926,-5.13911 -2.273763,-6.80424 -1.50435,-1.6766 -3.554201,-2.51457 -6.149496,-2.51457 z m 31.505569,0 c -2.89387,0 -5.19653,0.93018 -6.90759,2.79053 -1.69957,1.84886 -2.5492,4.35214 -2.5492,7.51013 0,3.05464 0.89574,5.47788 2.68718,7.26933 1.80292,1.79144 4.24287,2.68717 7.32048,2.68717 1.22874,0 2.44062,-0.12667 3.63492,-0.37931 1.1943,-0.25263 2.35956,-0.61994 3.49643,-1.10225 v -2.99724 c -1.12539,0.59715 -2.26229,1.04502 -3.41065,1.34359 -1.13687,0.29857 -2.31379,0.44804 -3.53105,0.44804 -2.1015,0 -3.7435,-0.56845 -4.92631,-1.70532 -1.17133,-1.14837 -1.8259,-2.81368 -1.96371,-4.99557 h 14.57276 v -1.55029 c 0,-2.8709 -0.75793,-5.13911 -2.27376,-6.80424 -1.50436,-1.6766 -3.55421,-2.51457 -6.1495,-2.51457 z m 21.94491,0 c -3.0087,0 -5.37975,0.9013 -7.11377,2.70423 -1.72255,1.80292 -2.58383,4.27784 -2.58383,7.42435 0,3.10057 0.8552,5.56384 2.56626,7.38973 1.71105,1.82589 4.01929,2.73885 6.92464,2.73885 1.06797,0 2.07315,-0.10335 3.0148,-0.31006 0.95314,-0.2067 1.87167,-0.51676 2.7559,-0.93017 v -2.92851 c -0.89571,0.4938 -1.79702,0.86719 -2.70422,1.11983 -0.89572,0.24116 -1.80311,0.36174 -2.7218,0.36174 -2.05556,0 -3.65198,-0.64901 -4.78885,-1.94665 -1.13688,-1.30914 -1.70533,-3.14062 -1.70533,-5.49476 0,-2.35414 0.56845,-4.18005 1.70533,-5.4777 1.13687,-1.30913 2.73329,-1.96371 4.78885,-1.96371 0.91869,0 1.82608,0.12615 2.7218,0.37879 0.9072,0.24116 1.80851,0.60847 2.70422,1.10226 v -2.96261 c -0.87274,-0.40193 -1.77405,-0.70033 -2.70422,-0.89555 -0.93017,-0.20671 -1.88367,-0.31006 -2.85978,-0.31006 z m 32.38407,0 c -2.76755,0 -4.93797,0.89573 -6.51123,2.68717 -1.56177,1.79144 -2.34301,4.27194 -2.34301,7.44141 0,3.15799 0.78124,5.63848 2.34301,7.44141 1.57326,1.79144 3.74368,2.68717 6.51123,2.68717 2.75607,0 4.92041,-0.89573 6.49366,-2.68717 1.57326,-1.80293 2.36007,-4.28342 2.36007,-7.44141 0,-3.16947 -0.78681,-5.64997 -2.36007,-7.44141 -1.57325,-1.79144 -3.73759,-2.68717 -6.49366,-2.68717 z m 23.66781,0 c -1.52732,0 -2.82533,0.28675 -3.8933,0.86093 -1.06798,0.5627 -1.93483,1.43006 -2.60088,2.60139 v -2.99723 h -3.18688 v 19.29236 h 3.18688 v -10.1632 c 0,-2.18189 0.47675,-3.85278 1.42989,-5.01262 0.96462,-1.17133 2.34268,-1.757 4.13411,-1.757 0.50528,0 0.96429,0.0517 1.3777,0.15503 0.42489,0.0919 0.81551,0.24134 1.1715,0.44804 l -0.0171,-3.25562 c -0.32154,-0.0574 -0.61438,-0.0974 -0.8785,-0.1204 -0.26412,-0.0345 -0.50528,-0.0517 -0.72347,-0.0517 z m -160.902838,1.45521 c 1.401,0 2.514578,0.47675 3.341399,1.42988 0.82682,0.94166 1.240234,2.21635 1.240234,3.82406 0,1.63067 -0.407329,2.91651 -1.222666,3.85816 -0.803852,0.94166 -1.912377,1.41284 -3.32486,1.41284 -1.423969,0 -2.543633,-0.46509 -3.35897,-1.39527 -0.815337,-0.94165 -1.222663,-2.23357 -1.222663,-3.87573 0,-1.61919 0.407326,-2.89997 1.222663,-3.84162 0.82682,-0.94166 1.935345,-1.41232 3.324863,-1.41232 z m 51.435102,1.23196 c 1.561772,0 2.813153,0.51677 3.754811,1.5503 0.95314,1.03352 1.441542,2.41714 1.464511,4.15117 l -11.300087,0.0171 c 0.160769,-1.81441 0.769752,-3.22082 1.826247,-4.2199 1.067972,-0.99907 2.486046,-1.49862 4.254518,-1.49862 z m 31.505056,0 c 1.56177,0 2.81367,0.51677 3.75532,1.5503 0.95314,1.03352 1.44103,2.41714 1.464,4.15117 l -11.29957,0.0171 c 0.16077,-1.81441 0.76923,-3.22082 1.82573,-4.2199 1.06797,-0.99907 2.48604,-1.49862 4.25452,-1.49862 z m 54.29487,0 c 1.68809,0 3.0256,0.67181 4.0132,2.01538 0.98758,1.3321 1.48156,3.1408 1.48156,5.42603 0,2.29672 -0.49398,4.11098 -1.48156,5.44308 -0.9876,1.3321 -2.32511,1.99833 -4.0132,1.99833 -1.71105,0 -3.06074,-0.66066 -4.04833,-1.98128 -0.9761,-1.3321 -1.46399,-3.15193 -1.46399,-5.46013 0,-2.3082 0.49397,-4.12298 1.48156,-5.44359 0.98759,-1.3321 2.33119,-1.99782 4.03076,-1.99782 z"
       transform="translate(0,-59.22514)" /></g></svg>
